<svg xmlns="http://www.w3.org/2000/svg" viewBox="0 0 64 64">
  <rect width="64" height="64" rx="14" fill="#111018"/>
  <path d="M22 13.5c1.2-3.2 4.4-5.5 8-5.5h4c3.6 0 6.8 2.3 8 5.5l5.2 15.2H16.8L22 13.5Z" fill="#8b6cf6"/>
  <path d="M18.4 24h27.2l2.4 7H16l2.4-7Z" fill="#5b3fd0"/>
  <path d="M8 34c0-2.8 2.2-5 5-5h38c2.8 0 5 2.2 5 5s-2.2 5-5 5H13c-2.8 0-5-2.2-5-5Z" fill="#bcaaff"/>
  <path d="M20 29h24v5H20z" fill="#211e2c"/>
  <path d="M23 14c2.4 2.1 5.5 3.2 9 3.2s6.6-1.1 9-3.2l2 5.7c-3.2 2.1-7 3.2-11 3.2s-7.8-1.1-11-3.2l2-5.7Z" fill="#987cf7"/>
</svg>
